<svg xmlns="http://www.w3.org/2000/svg" width="20" height="30" fill="none"><g clip-path="url(#a)"><circle cx="10" cy="10" r="5" fill="#fff"/><g filter="url(#b)"><path fill="#21ADE4" d="M10.047 2A8.047 8.047 0 0 0 2.38 12.493l.003.004a8.038 8.038 0 0 0 1.088 2.184l6.61 13.256 6.556-13.273c.47-.67.842-1.413 1.092-2.21A8.049 8.049 0 0 0 10.047 2Zm0 11.977a4.043 4.043 0 1 1 0-8.086 4.043 4.043 0 0 1 0 8.086Z"/></g></g><defs><clipPath id="a"><path fill="#fff" d="M0 0h20v30H0z"/></clipPath><filter id="b" width="24.096" height="33.937" x="-2" y="2" color-interpolation-filters="sRGB" filterUnits="userSpaceOnUse"><feFlood flood-opacity="0" result="BackgroundImageFix"/><feColorMatrix in="SourceAlpha" result="hardAlpha" values="0 0 0 0 0 0 0 0 0 0 0 0 0 0 0 0 0 0 127 0"/><feOffset dy="4"/><feGaussianBlur stdDeviation="2"/><feComposite in2="hardAlpha" operator="out"/><feColorMatrix values="0 0 0 0 0 0 0 0 0 0 0 0 0 0 0 0 0 0 0.25 0"/><feBlend in2="BackgroundImageFix" result="effect1_dropShadow_604_8"/><feBlend in="SourceGraphic" in2="effect1_dropShadow_604_8" result="shape"/></filter></defs></svg>