<svg xmlns="http://www.w3.org/2000/svg" width="21" height="21" viewBox="0 0 21 21" fill="none">
  <path d="M17.5391 16.7838L13.2063 12.4502C13.8727 11.5752 14.2477 10.4502 14.2477 9.2416C14.2477 6.2416 11.8313 3.8252 8.83126 3.8252C5.83126 3.8252 3.41406 6.2424 3.41406 9.2424C3.41406 12.2424 5.83046 14.6588 8.83046 14.6588C10.0391 14.6588 11.1219 14.2838 12.0391 13.6174L16.3727 17.951C16.5391 18.1174 16.7477 18.201 16.9563 18.201C17.1649 18.201 17.3727 18.1174 17.5399 17.951C17.8727 17.6174 17.8727 17.1174 17.5391 16.7838ZM8.83126 12.9924C6.74766 12.9924 5.08126 11.326 5.08126 9.2424C5.08126 7.1588 6.74766 5.4924 8.83126 5.4924C10.9149 5.4924 12.5813 7.1588 12.5813 9.2424C12.5813 11.3252 10.9141 12.9924 8.83126 12.9924Z" fill="#231F20"/>
</svg>