<svg width="1200" height="364" viewBox="0 0 1200 364" fill="none" xmlns="http://www.w3.org/2000/svg">
<path d="M1073.2 285.505C1070.78 294.532 1068.1 303.501 1065.14 312.484C1054.74 343.988 1041.17 374.434 1024.79 402.977C1008.82 430.792 990.006 457.134 968.858 481.274C948.096 504.972 924.884 526.785 899.863 546.108C875.083 565.246 848.316 582.104 820.308 596.216C792.301 610.327 762.825 621.807 732.699 630.336C702.282 638.947 670.937 644.622 639.538 647.207C607.553 649.839 575.185 649.286 543.333 645.565C510.645 641.746 478.097 634.538 446.594 624.146C199.12 542.5 60.254 281.213 126.876 32.5763C129.295 23.5494 131.97 14.5826 134.936 5.59736C219.546 -250.862 497.024 -390.672 753.482 -306.063C1000.95 -224.419 1139.82 36.8694 1073.2 285.504L1073.2 285.505ZM130.142 33.4495C63.9743 280.39 201.871 539.847 447.652 620.935C570.829 661.573 702.634 651.723 818.788 593.197C934.941 534.672 1021.29 434.603 1061.93 311.425C1102.57 188.247 1092.72 56.4417 1034.19 -59.7132C975.667 -175.867 875.599 -262.217 752.421 -302.853C497.733 -386.879 222.171 -248.034 138.145 6.655C135.208 15.5621 132.54 24.4994 130.142 33.4479L130.142 33.4495Z" fill="url(#paint0_linear_1991_1766)"/>
<path d="M918.007 233.909C917.257 236.711 916.471 239.499 915.652 242.275C909.222 264.061 900.599 285.305 890.025 305.417C879.644 325.161 867.281 344.013 853.276 361.449C839.405 378.718 823.809 394.747 806.917 409.089C790.026 423.432 771.703 436.207 752.458 447.056C733.027 458.012 712.488 467.098 691.41 474.068C669.94 481.166 647.69 486.136 625.283 488.839C602.288 491.612 578.84 492.031 555.594 490.084C532.347 488.137 509.309 483.824 487.119 477.264C465.496 470.873 444.419 462.273 424.475 451.705C404.895 441.33 386.208 428.957 368.935 414.927C351.828 401.033 335.958 385.394 321.77 368.446C307.581 351.499 294.954 333.106 284.246 313.778C273.432 294.262 264.477 273.624 257.631 252.437C250.658 230.855 245.801 208.481 243.199 185.94C240.529 162.808 240.198 139.211 242.219 115.808C244.014 95.0155 247.613 74.7703 252.837 55.2746C295.48 -103.873 446.673 -215.084 615.268 -200.959C638.515 -199.013 661.552 -194.7 683.742 -188.139C705.366 -181.748 726.442 -173.148 746.387 -162.58C765.967 -152.206 784.655 -139.832 801.927 -125.802C819.034 -111.908 834.904 -96.2691 849.092 -79.321C863.281 -62.3746 875.907 -43.9815 886.616 -24.6533C897.43 -5.13875 906.383 15.4999 913.229 36.6875C920.203 58.2694 925.059 80.6434 927.661 103.184C930.332 126.316 930.662 149.912 928.642 173.315C926.872 193.812 923.299 214.155 918.005 233.91L918.007 233.909ZM243.897 115.948L245.575 116.089C237.696 207.331 265.671 296.176 324.348 366.254C383.024 436.332 465.252 479.11 555.885 486.702C646.517 494.295 734.9 465.811 804.748 406.499C858.84 360.567 896.719 300.468 914.713 233.321C919.954 213.761 923.507 193.613 925.284 173.03C933.162 81.7889 905.188 -7.05414 846.51 -77.1342C787.834 -147.214 705.606 -189.989 614.973 -197.582C427.577 -213.281 261.863 -72.5687 245.573 116.086L243.895 115.946L243.897 115.948Z" fill="url(#paint1_linear_1991_1766)"/>
<path d="M1005.48 281.96C1002.12 294.514 998.135 306.906 993.554 319.047C984.546 342.919 973.142 366.058 959.661 387.823C946.309 409.377 930.803 429.77 913.575 448.432C896.347 467.095 877.258 484.178 856.836 499.207C836.218 514.383 814.061 527.596 790.985 538.479C767.478 549.566 742.774 558.347 717.562 564.578C691.687 570.974 664.958 574.759 638.113 575.833C611.27 576.905 584.323 575.265 558.022 570.954C532.392 566.754 507.067 559.974 482.75 550.798C458.878 541.79 435.739 530.388 413.975 516.906C392.419 503.553 372.028 488.048 353.367 470.821C334.704 453.593 317.622 434.504 302.591 414.083C287.415 393.465 274.202 371.31 263.318 348.233C252.231 324.726 243.449 300.024 237.218 274.811C230.823 248.937 227.037 222.208 225.964 195.365C224.891 168.521 226.533 141.574 230.841 115.272C235.041 89.6433 241.822 64.3171 250.998 40.0003C260.006 16.1285 271.408 -7.01085 284.89 -28.7754C298.243 -50.3313 313.748 -70.7224 330.975 -89.3851C348.203 -108.047 367.292 -125.131 387.712 -140.16C408.331 -155.336 430.485 -168.549 453.564 -179.434C477.07 -190.521 501.773 -199.303 526.985 -205.534C552.86 -211.929 579.589 -215.715 606.432 -216.789C824.962 -225.523 1009.85 -54.8432 1018.59 163.685C1019.66 190.527 1018.02 217.474 1013.71 243.776C1011.61 256.609 1008.86 269.366 1005.48 281.96L1005.48 281.96ZM227.649 195.295L229.339 195.228C233.528 300.015 278.389 397.006 355.657 468.334C432.926 539.663 533.19 576.64 637.978 572.452C742.767 568.264 839.76 523.404 911.091 446.135C955.034 398.536 985.941 342.199 1002.22 281.466C1012.36 243.611 1016.82 204.054 1015.21 163.819C1011.02 59.032 966.16 -37.9623 888.89 -109.291C811.62 -180.622 711.355 -217.6 606.567 -213.411C501.779 -209.223 404.788 -164.363 333.459 -87.0936C262.129 -9.82439 225.152 90.4398 229.341 195.227L227.651 195.294L227.649 195.295Z" fill="url(#paint2_linear_1991_1766)"/>
<defs>
<linearGradient id="paint0_linear_1991_1766" x1="248.339" y1="-181.795" x2="951.703" y2="499.81" gradientUnits="userSpaceOnUse">
<stop stop-color="#761846" offset="100%" stop-opacity="0"/>
<stop offset="0.13" stop-color="#761846" offset="100%" stop-opacity="0.07"/>
<stop offset="0.33" stop-color="#761846" offset="100%" stop-opacity="0.27"/>
<stop offset="0.58" stop-color="#761846" offset="100%" stop-opacity="0.6"/>
<stop offset="0.85" stop-color="#761846" offset="100%"/>
</linearGradient>
<linearGradient id="paint1_linear_1991_1766" x1="289.604" y1="-31.9089" x2="882.644" y2="318.814" gradientUnits="userSpaceOnUse">
<stop offset="0.18" stop-color="#21ACE3" stop-opacity="0"/>
<stop offset="0.23" stop-color="#21ACE3" stop-opacity="0.04"/>
<stop offset="0.31" stop-color="#21ACE3" stop-opacity="0.13"/>
<stop offset="0.41" stop-color="#21ACE3" stop-opacity="0.3"/>
<stop offset="0.53" stop-color="#21ACE3" stop-opacity="0.52"/>
<stop offset="0.65" stop-color="#21ACE3" stop-opacity="0.8"/>
<stop offset="0.73" stop-color="#21ACE3"/>
</linearGradient>
<linearGradient id="paint2_linear_1991_1766" x1="258.761" y1="21.0475" x2="985.837" y2="338.096" gradientUnits="userSpaceOnUse">
<stop offset="0.09" stop-color="#8E2457" stop-opacity="0"/>
<stop offset="0.84" stop-color="#D7B6D6"/>
</linearGradient>
</defs>
</svg>
